<svg xmlns="http://www.w3.org/2000/svg" xmlns:xlink="http://www.w3.org/1999/xlink"><symbol id="arrow" viewBox="0 0 12 13">
<path d="M3.5 2L8 6.5L3.5 11" stroke-width="2"/>
</symbol><symbol id="fb-footer" viewBox="0 0 39 38">
<path d="M38.5 19.1161C38.5 8.55857 29.9934 0 19.5 0C9.00658 0 0.5 8.55857 0.5 19.1161C0.5 28.6575 7.44803 36.5659 16.5312 38V24.6419H11.707V19.1161H16.5312V14.9046C16.5312 10.1136 19.3678 7.46723 23.7078 7.46723C25.7866 7.46723 27.9609 7.84059 27.9609 7.84059V12.545H25.5651C23.2048 12.545 22.4688 14.0185 22.4688 15.5302V19.1161H27.7383L26.8959 24.6419H22.4688V38C31.552 36.5659 38.5 28.6575 38.5 19.1161Z"/>
</symbol><symbol id="fb-header" viewBox="0 0 24 24">
<path d="M24 12.0733C24 5.40541 18.6274 0 12 0C5.37258 0 0 5.40541 0 12.0733C0 18.0995 4.38823 23.0943 10.125 24V15.5633H7.07813V12.0733H10.125V9.41343C10.125 6.38755 11.9165 4.71615 14.6576 4.71615C15.9705 4.71615 17.3438 4.95195 17.3438 4.95195V7.92313H15.8306C14.3399 7.92313 13.875 8.85379 13.875 9.80857V12.0733H17.2031L16.6711 15.5633H13.875V24C19.6118 23.0943 24 18.0995 24 12.0733Z"/>
</symbol></svg>